<mxfile host="app.diagrams.net" agent="Mozilla/5.0 (Windows NT 10.0; Win64; x64) AppleWebKit/537.36 (KHTML, like Gecko) Chrome/139.0.0.0 Safari/537.36" version="28.1.0">
  <diagram name="Page-1" id="TAI74crctM7fYTrcqJwH">
    <mxGraphModel dx="1042" dy="527" grid="1" gridSize="10" guides="1" tooltips="1" connect="1" arrows="1" fold="1" page="1" pageScale="1" pageWidth="850" pageHeight="1100" math="0" shadow="0">
      <root>
        <mxCell id="0" />
        <mxCell id="1" parent="0" />
        <mxCell id="J2Aw0Mr12dDYD2FUywnq-1" value="" style="shape=or;whiteSpace=wrap;html=1;" parent="1" vertex="1">
          <mxGeometry x="280" y="720" width="60" height="80" as="geometry" />
        </mxCell>
        <mxCell id="J2Aw0Mr12dDYD2FUywnq-3" value="" style="shape=or;whiteSpace=wrap;html=1;" parent="1" vertex="1">
          <mxGeometry x="280" y="80" width="60" height="80" as="geometry" />
        </mxCell>
        <mxCell id="J2Aw0Mr12dDYD2FUywnq-4" value="" style="shape=or;whiteSpace=wrap;html=1;" parent="1" vertex="1">
          <mxGeometry x="280" y="240" width="60" height="80" as="geometry" />
        </mxCell>
        <mxCell id="J2Aw0Mr12dDYD2FUywnq-5" value="" style="shape=or;whiteSpace=wrap;html=1;" parent="1" vertex="1">
          <mxGeometry x="280" y="400" width="60" height="80" as="geometry" />
        </mxCell>
        <mxCell id="J2Aw0Mr12dDYD2FUywnq-6" value="" style="shape=or;whiteSpace=wrap;html=1;" parent="1" vertex="1">
          <mxGeometry x="280" y="560" width="60" height="80" as="geometry" />
        </mxCell>
        <mxCell id="J2Aw0Mr12dDYD2FUywnq-8" value="" style="whiteSpace=wrap;html=1;aspect=fixed;" parent="1" vertex="1">
          <mxGeometry x="50" y="60" width="50" height="50" as="geometry" />
        </mxCell>
        <mxCell id="J2Aw0Mr12dDYD2FUywnq-9" value="" style="whiteSpace=wrap;html=1;aspect=fixed;" parent="1" vertex="1">
          <mxGeometry x="50" y="160" width="50" height="50" as="geometry" />
        </mxCell>
        <mxCell id="J2Aw0Mr12dDYD2FUywnq-10" value="" style="whiteSpace=wrap;html=1;aspect=fixed;" parent="1" vertex="1">
          <mxGeometry x="50" y="255" width="50" height="50" as="geometry" />
        </mxCell>
        <mxCell id="J2Aw0Mr12dDYD2FUywnq-11" value="" style="whiteSpace=wrap;html=1;aspect=fixed;" parent="1" vertex="1">
          <mxGeometry x="50" y="350" width="50" height="50" as="geometry" />
        </mxCell>
        <mxCell id="J2Aw0Mr12dDYD2FUywnq-12" value="" style="whiteSpace=wrap;html=1;aspect=fixed;" parent="1" vertex="1">
          <mxGeometry x="50" y="830" width="50" height="50" as="geometry" />
        </mxCell>
      </root>
    </mxGraphModel>
  </diagram>
</mxfile>
